<?xml version="1.0" encoding="UTF-8"?>
<svg version="1.1" xmlns="http://www.w3.org/2000/svg" width="500" height="500">
<path d="M0 0 C1.39605469 0.02513672 1.39605469 0.02513672 2.8203125 0.05078125 C13.45738161 0.68179382 24.19178976 5.11758345 34 9 C34 9.66 34 10.32 34 11 C34.71542969 11.10441406 35.43085938 11.20882812 36.16796875 11.31640625 C39.31163677 12.07522267 41.55215773 13.26493706 44.3125 14.9375 C45.19550781 15.46214844 46.07851563 15.98679688 46.98828125 16.52734375 C47.65214844 17.01332031 48.31601562 17.49929687 49 18 C49 18.66 49 19.32 49 20 C49.87785156 20.40605469 49.87785156 20.40605469 50.7734375 20.8203125 C60.80291405 26.13417551 69.2488084 37.48942857 75 47 C75 47.99 75 48.98 75 50 C75.66 50 76.32 50 77 50 C88.50715819 74.89381888 91.91925773 101.02984692 83.33203125 127.53125 C79.63101288 137.16909257 74.72330524 146.41504214 69 155 C71.97 157.64 74.94 160.28 78 163 C76.8125 167.75 76.8125 167.75 74 170 C73.34 170 72.68 170 72 170 C72 170.66 72 171.32 72 172 C71.01 172.33 70.02 172.66 69 173 C68.34 172.67 67.68 172.34 67 172 C67 171.34 67 170.68 67 170 C66.34 170 65.68 170 65 170 C65 169.34 65 168.68 65 168 C62.69 168 60.38 168 58 168 C57.67 170.97 57.34 173.94 57 177 C57.66 177 58.32 177 59 177 C59 177.66 59 178.32 59 179 C64.52150257 179.93584789 68.96974434 179.97478067 74.5 179 C82.72733768 177.59042117 89.576199 177.79784849 97 182 C101.93536823 186.27344825 105.09502872 191.50066083 106 198 C105.81903076 203.48940019 105.06693989 207.65228645 101.625 212 C100.75875 212.66 99.8925 213.32 99 214 C98.42765625 214.52722656 97.8553125 215.05445313 97.265625 215.59765625 C92.52710922 218.53063412 86.35983774 217.56582974 81 217 C77.47329611 215.76754971 75.58974999 213.96504544 73.625 210.75 C73.41875 210.1725 73.2125 209.595 73 209 C72.34 209 71.68 209 71 209 C72.56318408 205.16309363 74.7953315 202.60845111 78 200 C80.8125 200.1875 80.8125 200.1875 83 201 C83 201.66 83 202.32 83 203 C87.09542781 204.14203952 87.09542781 204.14203952 90.9375 202.875 C92.22361543 200.995776 92.22361543 200.995776 91.875 198.5 C90.91556743 195.75876408 90.29293092 194.74222699 88 193 C85.36111114 192.59935207 85.36111114 192.59935207 82.5 192.75 C81.5409375 192.76546875 80.581875 192.7809375 79.59375 192.796875 C76.88592606 192.90402754 76.88592606 192.90402754 74 194 C64.64762423 194.61095922 58.18835881 194.3784662 50.3125 189.25 C47.37051312 186.38752628 45.83632047 183.67264095 44 180 C44 179.34 44 178.68 44 178 C42.56720703 178.79664063 42.56720703 178.79664063 41.10546875 179.609375 C17.28465253 192.69195778 -8.65044793 197.20696029 -35.3828125 189.84765625 C-49.02332318 185.77239759 -62.1270507 179.28731086 -73 170 C-73 169.34 -73 168.68 -73 168 C-73.66 168 -74.32 168 -75 168 C-75 167.34 -75 166.68 -75 166 C-75.66 166 -76.32 166 -77 166 C-77 165.34 -77 164.68 -77 164 C-77.87011719 163.64421875 -77.87011719 163.64421875 -78.7578125 163.28125 C-90.28456742 156.6945329 -98.67539243 137.13559223 -102.23046875 125 C-109.51222135 98.20696619 -106.46291076 72.14379355 -93 48 C-92.45472656 47.01128906 -91.90945312 46.02257812 -91.34765625 45.00390625 C-85.78618448 35.63506995 -77.89565738 26.38702044 -69 20 C-68.34 20 -67.68 20 -67 20 C-67 19.34 -67 18.68 -67 18 C-63.16080657 15.40214578 -59.0599273 13.23321094 -55 11 C-54.27683594 10.60167969 -53.55367187 10.20335937 -52.80859375 9.79296875 C-35.76096343 0.8598681 -18.86022506 -0.38967407 0 0 Z M-55 26 C-55 26.66 -55 27.32 -55 28 C-55.763125 28.28875 -56.52625 28.5775 -57.3125 28.875 C-60.15029308 29.96269013 -60.15029308 29.96269013 -63 32 C-63 32.66 -63 33.32 -63 34 C-63.598125 34.268125 -64.19625 34.53625 -64.8125 34.8125 C-66.99847854 35.99917406 -68.41332594 37.09599113 -70 39 C-70 39.66 -70 40.32 -70 41 C-70.66 41 -71.32 41 -72 41 C-72 41.66 -72 42.32 -72 43 C-72.66 43 -73.32 43 -74 43 C-75.55549727 45.13805803 -76.97969482 47.26036939 -78.375 49.5 C-78.78129639 50.14565918 -79.18759277 50.79131836 -79.60620117 51.45654297 C-92.72478002 72.50660876 -95.70146537 95.33244875 -90.15234375 119.40625 C-88.13598719 125.69454841 -85.08724866 131.43813686 -81.94921875 137.23046875 C-80.57528696 139.791749 -79.28683872 142.39415159 -78 145 C-77.34 145 -76.68 145 -76 145 C-75.75121094 145.56203125 -75.50242188 146.1240625 -75.24609375 146.703125 C-70.49311115 155.4641086 -62.1549056 161.63279972 -54 167 C-53.16339844 167.556875 -52.32679688 168.11375 -51.46484375 168.6875 C-32.54106497 180.68355628 -9.4922183 182.41537968 12.07421875 177.98828125 C17.41888915 176.74716295 22.15276595 174.52579312 27 172 C28.38978471 171.38204652 29.78492863 170.77585499 31.1875 170.1875 C32.115625 169.795625 33.04375 169.40375 34 169 C34 168.34 34 167.68 34 167 C34.56203125 166.90847656 35.1240625 166.81695312 35.703125 166.72265625 C43.2253177 164.35597998 51.07906781 156.04261526 56 150 C57.21781669 147.36953633 57.21781669 147.36953633 58 145 C58.66 145 59.32 145 60 145 C69.21569425 132.45905524 73.9233118 117.36416976 75 102 C75.10634766 100.49373047 75.10634766 100.49373047 75.21484375 98.95703125 C75.86572064 79.66504018 69.11251365 60.58808399 58 45 C57.34 45 56.68 45 56 45 C56 44.34 56 43.68 56 43 C55.34 43 54.68 43 54 43 C53.6596875 42.1646875 53.6596875 42.1646875 53.3125 41.3125 C51.62449964 38.33840412 49.53323483 36.27991135 47 34 C46.34 34 45.68 34 45 34 C45 33.34 45 32.68 45 32 C39.98536272 27.26591391 33.89292963 24.17267777 27.6875 21.3125 C26.85444336 20.92384766 26.02138672 20.53519531 25.16308594 20.13476562 C-2.40880407 7.5445677 -28.89592023 12.8071831 -55 26 Z " fill="#294259" transform="translate(259,142)"/>
<path d="M0 0 C0.99 0.33 1.98 0.66 3 1 C4.546875 1.433125 4.546875 1.433125 6.125 1.875 C7.07375 2.24625 8.0225 2.6175 9 3 C9.33 3.99 9.66 4.98 10 6 C9.34 6 8.68 6 8 6 C8 5.34 8 4.68 8 4 C5.69 4 3.38 4 1 4 C0.67 6.97 0.34 9.94 0 13 C0.66 13 1.32 13 2 13 C2 13.66 2 14.32 2 15 C7.52150257 15.93584789 11.96974434 15.97478067 17.5 15 C25.72733768 13.59042117 32.576199 13.79784849 40 18 C44.93536823 22.27344825 48.09502872 27.50066083 49 34 C48.81903076 39.48940019 48.06693989 43.65228645 44.625 48 C43.75875 48.66 42.8925 49.32 42 50 C41.42765625 50.52722656 40.8553125 51.05445313 40.265625 51.59765625 C35.52710922 54.53063412 29.35983774 53.56582974 24 53 C20.47329611 51.76754971 18.58974999 49.96504544 16.625 46.75 C16.41875 46.1725 16.2125 45.595 16 45 C15.34 45 14.68 45 14 45 C15.56318408 41.16309363 17.7953315 38.60845111 21 36 C23.8125 36.1875 23.8125 36.1875 26 37 C26 37.66 26 38.32 26 39 C30.09542781 40.14203952 30.09542781 40.14203952 33.9375 38.875 C35.22361543 36.995776 35.22361543 36.995776 34.875 34.5 C33.91556743 31.75876408 33.29293092 30.74222699 31 29 C28.36111114 28.59935207 28.36111114 28.59935207 25.5 28.75 C24.5409375 28.76546875 23.581875 28.7809375 22.59375 28.796875 C19.88592606 28.90402754 19.88592606 28.90402754 17 30 C7.54323568 30.61777857 0.96596753 30.45458611 -6.875 25 C-9 23 -9 23 -10 20 C-9.34 20 -8.68 20 -8 20 C-7.67 19.34 -7.34 18.68 -7 18 C-6.67 19.32 -6.34 20.64 -6 22 C-4.02 21.01 -2.04 20.02 0 19 C0 18.34 0 17.68 0 17 C-0.66 16.34 -1.32 15.68 -2 15 C-1.94140625 12.46875 -1.94140625 12.46875 -1.5625 9.5 C-0.91377236 5.61072433 -0.91377236 5.61072433 -2 2 C-1.34 1.34 -0.68 0.68 0 0 Z " fill="#2B435B" transform="translate(316,306)"/>
<path d="M0 0 C0.763125 0.165 1.52625 0.33 2.3125 0.5 C4.92884543 1.18231834 4.92884543 1.18231834 7.1875 0.4375 C7.785625 0.293125 8.38375 0.14875 9 0 C13 4 13 4 14 7 C14.59167969 6.77957031 15.18335938 6.55914062 15.79296875 6.33203125 C18 6 18 6 19.73828125 7.07421875 C20.51751953 7.87279297 20.51751953 7.87279297 21.3125 8.6875 C21.84488281 9.20699219 22.37726563 9.72648437 22.92578125 10.26171875 C24 12 24 12 23.7578125 14.09765625 C22.86607742 16.33618709 21.87515307 17.49987754 20 19 C19.34 19 18.68 19 18 19 C18 19.66 18 20.32 18 21 C17.01 21.33 16.02 21.66 15 22 C14.34 21.67 13.68 21.34 13 21 C12.375 18.4375 12.375 18.4375 12 16 C6.84437671 14.89633152 6.84437671 14.89633152 2 16 C2.33 16.66 2.66 17.32 3 18 C2.78638962 20.58076213 2.42007948 23.12355995 2.05859375 25.6875 C2.03925781 26.450625 2.01992188 27.21375 2 28 C2.66 28.66 3.32 29.32 4 30 C3.3125 31.9375 3.3125 31.9375 2 34 C-0.5 34.875 -0.5 34.875 -3 35 C-3.66 34.34 -4.32 33.68 -5 33 C-5.99 33 -6.98 33 -8 33 C-8.66 31.02 -9.32 29.04 -10 27 C-10.680625 27.495 -11.36125 27.99 -12.0625 28.5 C-16.9852305 31.01373472 -21.75873658 30.27060931 -27 29 C-27 28.34 -27 27.68 -27 27 C-27.33 26.01 -27.66 25.02 -28 24 C-27.01 23.67 -26.02 23.34 -25 23 C-23.78130071 20.49552484 -23.78130071 20.49552484 -23 18 C-22.01 18 -21.02 18 -20 18 C-20 17.34 -20 16.68 -20 16 C-18.46472656 15.18595703 -18.46472656 15.18595703 -16.8984375 14.35546875 C-12.99348918 12.12364816 -9.86428296 9.40827043 -6.625 6.3125 C-6.09261719 5.81427734 -5.56023437 5.31605469 -5.01171875 4.80273438 C-3.32349752 3.21975849 -1.63659638 1.63659638 0 0 Z " fill="#1D3851" transform="translate(313,293)"/>
<path d="M0 0 C4.82626694 2.36760265 7.73430831 5.12004868 10 10 C10.79637306 14.9361399 11.18356806 19.72330263 8.82421875 24.26171875 C6.0837633 27.63948942 3.33110166 30.07190679 -1 31 C-8.24209507 31.57476945 -12.22225642 30.35504347 -17.875 25.5625 C-20.85402581 21.71579677 -20.63122429 17.54056949 -20.421875 12.84765625 C-19.85105716 8.99463583 -18.67448611 6.81905293 -16 4 C-10.60159567 0.27253035 -6.51037403 -0.77948829 0 0 Z " fill="#66BE45" transform="translate(255,223)"/>
<path d="M0 0 C25.43887824 -0.24940077 25.43887824 -0.24940077 38 4 C38 4.99 38 5.98 38 7 C39.32 7.33 40.64 7.66 42 8 C40.35 8.66 38.7 9.32 37 10 C37 10.66 37 11.32 37 12 C37.66 12 38.32 12 39 12 C38.67 12.99 38.34 13.98 38 15 C37.34 15 36.68 15 36 15 C36 13.68 36 12.36 36 11 C35.01 11 34.02 11 33 11 C33 11.66 33 12.32 33 13 C21.5115801 16.30488792 1.29336732 15.08483499 -10 11 C-10.66666667 9.66666667 -11.33333333 8.33333333 -12 7 C-14.02463255 6.34786708 -14.02463255 6.34786708 -16 6 C-16 5.34 -16 4.68 -16 4 C-14.3603125 4.061875 -14.3603125 4.061875 -12.6875 4.125 C-8.91107771 4.32074666 -8.91107771 4.32074666 -6 2 C-2.8125 1.875 -2.8125 1.875 0 2 C0 1.34 0 0.68 0 0 Z " fill="#213B52" transform="translate(241,142)"/>
<path d="M0 0 C1.65 0 3.3 0 5 0 C5.33 0.99 5.66 1.98 6 3 C5.505 3.886875 5.01 4.77375 4.5 5.6875 C2.83236607 9.3701916 3.2486548 11.02054514 3.92578125 14.88671875 C4.04131714 18.17645132 2.58486266 20.4634137 1.125 23.34765625 C-1.11702764 28.63354781 -1.94439943 34.37812729 -3 40 C-3.66 40 -4.32 40 -5 40 C-5.33 40.66 -5.66 41.32 -6 42 C-6 41.34 -6 40.68 -6 40 C-6.556875 40.309375 -7.11375 40.61875 -7.6875 40.9375 C-10.14430044 42.0663002 -12.32479417 42.6384857 -15 43 C-16.57515373 41.42484627 -16.20813951 39.87471081 -16.25 37.6875 C-16.14133203 28.1790525 -13.2019873 19.44663437 -9 11 C-8.01 11 -7.02 11 -6 11 C-5.67 9.68 -5.34 8.36 -5 7 C-4.34 7 -3.68 7 -3 7 C-2.01 4.69 -1.02 2.38 0 0 Z " fill="#233D54" transform="translate(171,186)"/>
<path d="M0 0 C-0.33 1.32 -0.66 2.64 -1 4 C-1.99 4 -2.98 4 -4 4 C-2.04783565 5.95216435 -0.46800047 6.84826645 2 8 C2 8.33 2 8.66 2 9 C4.475 9.495 4.475 9.495 7 10 C3.61100234 12.85973354 -0.09925725 14.46377146 -4.1875 16.0625 C-4.8580542 16.32635498 -5.5286084 16.59020996 -6.21948242 16.86206055 C-11.10500302 18.74255846 -15.82160328 20.25190141 -21 21 C-21.73863281 21.10957031 -22.47726562 21.21914063 -23.23828125 21.33203125 C-30.79956632 22.2601759 -38.39642485 22.0912429 -46 22 C-46 21.67 -46 21.34 -46 21 C-39.4 20.34 -32.8 19.68 -26 19 C-26.99 18.34 -27.98 17.68 -29 17 C-29 16.34 -29 15.68 -29 15 C-28.01 15 -27.02 15 -26 15 C-26.33 14.34 -26.66 13.68 -27 13 C-27.66 13 -28.32 13 -29 13 C-28.67 12.01 -28.34 11.02 -28 10 C-28.99 9.34 -29.98 8.68 -31 8 C-29.90042969 7.84144531 -28.80085938 7.68289063 -27.66796875 7.51953125 C-19.56577183 6.26887503 -12.44575795 4.84227855 -5.1015625 0.98828125 C-3 0 -3 0 0 0 Z " fill="#294258" transform="translate(289,313)"/>
<path d="M0 0 C0.99 0.33 1.98 0.66 3 1 C4.546875 1.433125 4.546875 1.433125 6.125 1.875 C7.07375 2.24625 8.0225 2.6175 9 3 C9.33 3.99 9.66 4.98 10 6 C9.34 6 8.68 6 8 6 C8 5.34 8 4.68 8 4 C5.69 4 3.38 4 1 4 C0.67 6.97 0.34 9.94 0 13 C0.66 13 1.32 13 2 13 C2 13.66 2 14.32 2 15 C8.88577812 16.01593448 15.09811029 15.83854735 22 15 C21.01 16.32 20.02 17.64 19 19 C20.32 19 21.64 19 23 19 C22.67 20.98 22.34 22.96 22 25 C22.5775 25.12375 23.155 25.2475 23.75 25.375 C26.02612206 26.00725613 27.90760206 26.91863468 30 28 C5.37025316 32.58227848 5.37025316 32.58227848 -4 27 C-8.77358491 23.67924528 -8.77358491 23.67924528 -10 20 C-9.34 20 -8.68 20 -8 20 C-7.67 19.34 -7.34 18.68 -7 18 C-6.67 19.32 -6.34 20.64 -6 22 C-4.02 21.01 -2.04 20.02 0 19 C0 18.34 0 17.68 0 17 C-0.66 16.34 -1.32 15.68 -2 15 C-1.94140625 12.46875 -1.94140625 12.46875 -1.5625 9.5 C-0.91377236 5.61072433 -0.91377236 5.61072433 -2 2 C-1.34 1.34 -0.68 0.68 0 0 Z " fill="#294259" transform="translate(316,306)"/>
<path d="M0 0 C2.64 0 5.28 0 8 0 C8.02527002 6.53278786 8.04283292 13.06556321 8.05493164 19.59838867 C8.05997317 21.82267732 8.06680623 24.04696263 8.07543945 26.27124023 C8.08751298 29.46078309 8.09322996 32.65028229 8.09765625 35.83984375 C8.10281754 36.84087631 8.10797882 37.84190887 8.11329651 38.87327576 C8.11337204 39.79415482 8.11344757 40.71503387 8.11352539 41.66381836 C8.115746 42.47878281 8.11796661 43.29374725 8.12025452 44.13340759 C8 46 8 46 7 47 C4 47.125 4 47.125 1 47 C0 46 0 46 -0.12025452 44.13340759 C-0.11803391 43.31844315 -0.11581329 42.5034787 -0.11352539 41.66381836 C-0.11344986 40.7429393 -0.11337433 39.82206024 -0.11329651 38.87327576 C-0.10813522 37.87224319 -0.10297394 36.87121063 -0.09765625 35.83984375 C-0.0962413 34.82024063 -0.09482635 33.80063751 -0.09336853 32.75013733 C-0.08775097 29.47922893 -0.0751955 26.20838787 -0.0625 22.9375 C-0.05748726 20.72591244 -0.05292396 18.51432382 -0.04882812 16.30273438 C-0.03777584 10.86846643 -0.02102063 5.43423803 0 0 Z " fill="#62ADD2" transform="translate(246,164)"/>
<path d="M0 0 C3 0.125 3 0.125 4 1.125 C4.0928726 2.53725046 4.11746772 3.95408934 4.11352539 5.36938477 C4.11344986 6.27024307 4.11337433 7.17110138 4.11329651 8.09925842 C4.10813522 9.07841721 4.10297394 10.05757599 4.09765625 11.06640625 C4.0962413 12.06381332 4.09482635 13.0612204 4.09336853 14.08885193 C4.08775114 17.28843124 4.07519571 20.48794169 4.0625 23.6875 C4.05748724 25.85091045 4.05292395 28.01432199 4.04882812 30.17773438 C4.03777607 35.49351325 4.02102104 40.80925171 4 46.125 C1.36 46.125 -1.28 46.125 -4 46.125 C-4.02527062 39.73462769 -4.04283317 33.34426817 -4.05493164 26.95385742 C-4.05997308 24.77807127 -4.06680607 22.60228853 -4.07543945 20.42651367 C-4.08751338 17.30646933 -4.09323005 14.18646962 -4.09765625 11.06640625 C-4.10281754 10.08724747 -4.10797882 9.10808868 -4.11329651 8.09925842 C-4.11337204 7.19840012 -4.11344757 6.29754181 -4.11352539 5.36938477 C-4.115746 4.57218521 -4.11796661 3.77498566 -4.12025452 2.95362854 C-3.91345544 -0.19102421 -3.19696524 0.13320688 0 0 Z " fill="#3A98C9" transform="translate(250,265.875)"/>
<path d="M0 0 C2.79643618 3.42455876 4.74004289 7.18129771 6.6875 11.125 C7.16799805 12.07439453 7.16799805 12.07439453 7.65820312 13.04296875 C10 17.74653518 10 17.74653518 10 20 C10.66 20 11.32 20 12 20 C13.2890625 21.53125 13.2890625 21.53125 14.625 23.5 C15.07101563 24.1496875 15.51703125 24.799375 15.9765625 25.46875 C16.31429687 25.9740625 16.65203125 26.479375 17 27 C16.34 27.99 15.68 28.98 15 30 C15 29.01 15 28.02 15 27 C14.01 27 13.02 27 12 27 C11.01 28.98 10.02 30.96 9 33 C8.34 33 7.68 33 7 33 C7.33 34.32 7.66 35.64 8 37 C-0.26459605 29.51020983 -5.86440773 20.27933271 -10 10 C-9.34 9.34 -8.68 8.68 -8 8 C-7.62875 8.515625 -7.2575 9.03125 -6.875 9.5625 C-4.97898518 11.34104523 -4.97898518 11.34104523 -1.875 10.8125 C-0.451875 10.4103125 -0.451875 10.4103125 1 10 C1.33 9.34 1.66 8.68 2 8 C1.690625 7.38125 1.38125 6.7625 1.0625 6.125 C0 4 0 4 0 0 Z " fill="#2D455C" transform="translate(171,267)"/>
<path d="M0 0 C6.53278786 -0.02527002 13.06556321 -0.04283292 19.59838867 -0.05493164 C21.82267732 -0.05997317 24.04696263 -0.06680623 26.27124023 -0.07543945 C29.46078309 -0.08751298 32.65028229 -0.09322996 35.83984375 -0.09765625 C37.34139259 -0.10539818 37.34139259 -0.10539818 38.87327576 -0.11329651 C39.79415482 -0.11337204 40.71503387 -0.11344757 41.66381836 -0.11352539 C42.47878281 -0.115746 43.29374725 -0.11796661 44.13340759 -0.12025452 C46 0 46 0 47 1 C47.125 3.5 47.125 3.5 47 6 C46 7 46 7 44.13340759 7.12025452 C43.31844315 7.11803391 42.5034787 7.11581329 41.66381836 7.11352539 C40.28249977 7.11341209 40.28249977 7.11341209 38.87327576 7.11329651 C37.87224319 7.10813522 36.87121063 7.10297394 35.83984375 7.09765625 C34.82024063 7.0962413 33.80063751 7.09482635 32.75013733 7.09336853 C29.47922893 7.08775097 26.20838787 7.0751955 22.9375 7.0625 C20.72591244 7.05748726 18.51432382 7.05292396 16.30273438 7.04882812 C10.86846643 7.03777584 5.43423803 7.02102063 0 7 C0 4.69 0 2.38 0 0 Z " fill="#4CA2CF" transform="translate(278,235)"/>
<path d="M0 0 C15.18 0 30.36 0 46 0 C46 2.31 46 4.62 46 7 C30.82 7 15.64 7 0 7 C-1 2 -1 2 0 0 Z " fill="#3E9BCB" transform="translate(176,235)"/>
<path d="M0 0 C9.57 0.33 19.14 0.66 29 1 C28.34 2.32 27.68 3.64 27 5 C27.99 4.67 28.98 4.34 30 4 C30 4.99 30 5.98 30 7 C29.01 7 28.02 7 27 7 C27.66 7.66 28.32 8.32 29 9 C29.33 9.66 29.66 10.32 30 11 C24.2750962 12.63198615 19.19005217 13.31330429 13.25 13.25 C12.50878906 13.25773437 11.76757812 13.26546875 11.00390625 13.2734375 C7.19177582 13.25974942 4.22953409 13.14169103 1 11 C2.93254772 8.9754262 4.63158688 7.57894208 7 6 C5.02 5.01 3.04 4.02 1 3 C1 3.66 1 4.32 1 5 C0.34 4.67 -0.32 4.34 -1 4 C-0.67 2.68 -0.34 1.36 0 0 Z " fill="#1E3A50" transform="translate(233,321)"/>
<path d="M0 0 C1.32 0.33 2.64 0.66 4 1 C3.67 1.99 3.34 2.98 3 4 C3.99 4 4.98 4 6 4 C6 4.66 6 5.32 6 6 C6.99 6.33 7.98 6.66 9 7 C11.20096447 10.65954012 12.06376921 14.13911567 11.75 18.375 C11 21 11 21 10 23 C9.01 23 8.02 23 7 23 C6.67 23.66 6.34 24.32 6 25 C5.34 24.67 4.68 24.34 4 24 C3.67 24.99 3.34 25.98 3 27 C2.34 27 1.68 27 1 27 C-1.52653315 20.83354621 -2.31281522 16.56407612 -1 10 C-1.66 10 -2.32 10 -3 10 C-5 7 -5 7 -5 4 C-4.0409375 3.8453125 -4.0409375 3.8453125 -3.0625 3.6875 C-2.381875 3.460625 -1.70125 3.23375 -1 3 C-0.67 2.01 -0.34 1.02 0 0 Z " fill="#274058" transform="translate(329,189)"/>
<path d="M0 0 C5.2975334 0.51683253 8.66762987 2.02680481 13 5 C14 7.1875 14 7.1875 14 9 C13.67 9.33 13.34 9.66 13 10 C13.66 10.33 14.32 10.66 15 11 C15.4140625 13.06640625 15.4140625 13.06640625 15.625 15.5625 C15.69976562 16.38878906 15.77453125 17.21507812 15.8515625 18.06640625 C15.90054687 18.70449219 15.94953125 19.34257812 16 20 C10.85441962 18.37056621 5.89815569 16.56799761 0.9375 14.4375 C-3.68127747 12.47407603 -8.09495729 11.03760519 -13 10 C-9.91190305 8.23537317 -8.76687864 8 -5 8 C-5 7.34 -5 6.68 -5 6 C-4.01 6 -3.02 6 -2 6 C-2 7.32 -2 8.64 -2 10 C-1.01 9.01 -0.02 8.02 1 7 C0.34 7 -0.32 7 -1 7 C-1 6.34 -1 5.68 -1 5 C-0.01 4.34 0.98 3.68 2 3 C1.34 2.67 0.68 2.34 0 2 C0 1.34 0 0.68 0 0 Z " fill="#2D455B" transform="translate(279,147)"/>
<path d="M0 0 C1.98 0.66 3.96 1.32 6 2 C6 3.32 6 4.64 6 6 C6.99 6 7.98 6 9 6 C12.53846154 12.76923077 12.53846154 12.76923077 13 16 C12.67 16.66 12.34 17.32 12 18 C12.33 18.99 12.66 19.98 13 21 C12.34 21.33 11.68 21.66 11 22 C8.64018187 21.06421005 6.30368736 20.06652192 4 19 C4 18.34 4 17.68 4 17 C3.34 17 2.68 17 2 17 C2 16.34 2 15.68 2 15 C1.34 15 0.68 15 0 15 C0 14.34 0 13.68 0 13 C-0.99 12.67 -1.98 12.34 -3 12 C-3.6875 9.6875 -3.6875 9.6875 -4 7 C-2.625 5.4375 -2.625 5.4375 -1 4 C-0.28552357 1.89667109 -0.28552357 1.89667109 0 0 Z " fill="#273E57" transform="translate(182,293)"/>
<path d="M0 0 C2 2 2 2 2.23046875 4.09375 C2.20919922 5.28484375 2.20919922 5.28484375 2.1875 6.5 C2.18105469 7.2940625 2.17460937 8.088125 2.16796875 8.90625 C2 11 2 11 1 13 C-0.32 13 -1.64 13 -3 13 C-3.33 14.98 -3.66 16.96 -4 19 C-5.258125 18.835 -6.51625 18.67 -7.8125 18.5 C-10.26456585 18.17841759 -12.51650694 18 -15 18 C-14.50853464 13.08534635 -13.83840595 9.11079482 -11 5 C-8.0625 4.25 -8.0625 4.25 -5 4 C-1.80992137 2.75914304 -1.80992137 2.75914304 0 0 Z " fill="#1E3953" transform="translate(337,267)"/>
<path d="M0 0 C1.65 0 3.3 0 5 0 C5.33 0.99 5.66 1.98 6 3 C5.505 3.886875 5.01 4.77375 4.5 5.6875 C2.95295184 9.10389802 2.90368793 9.6902225 3.5625 13.125 C4 17 4 17 2.0625 19.5 C1.381875 19.995 0.70125 20.49 0 21 C-2 20 -2 20 -3.4375 17.4375 C-3.953125 16.633125 -4.46875 15.82875 -5 15 C-5.99 15 -6.98 15 -8 15 C-8 13.68 -8 12.36 -8 11 C-7.34 11 -6.68 11 -6 11 C-5.67 9.68 -5.34 8.36 -5 7 C-4.34 7 -3.68 7 -3 7 C-2.01 4.69 -1.02 2.38 0 0 Z " fill="#1C374F" transform="translate(171,186)"/>
<path d="M0 0 C1.3303125 0.10054688 1.3303125 0.10054688 2.6875 0.203125 C5 0.75 5 0.75 7 3.75 C7.125 6.4375 7.125 6.4375 7 8.75 C7.66 9.08 8.32 9.41 9 9.75 C8.34 9.75 7.68 9.75 7 9.75 C7.33 11.4 7.66 13.05 8 14.75 C4.125 13.875 4.125 13.875 3 12.75 C0.67182036 12.38239269 -1.6618385 12.04758419 -4 11.75 C-5.125 6 -5.125 6 -4 3.75 C-5.32 3.75 -6.64 3.75 -8 3.75 C-7.67 2.76 -7.34 1.77 -7 0.75 C-4.43148558 -0.53425721 -2.84754463 -0.24833238 0 0 Z " fill="#1B364E" transform="translate(343,321.25)"/>
<path d="M0 0 C3.35915158 1.43963639 5.71624938 3.12416589 8 6 C7.9198832 8.6438545 7.23219261 9.71733073 5.5625 11.75 C4 13 4 13 2 13 C2 13.66 2 14.32 2 15 C1.01 15.33 0.02 15.66 -1 16 C-1.66 15.67 -2.32 15.34 -3 15 C-2 13 -2 13 -1 12 C-2.65 10.68 -4.3 9.36 -6 8 C-5.01 7.67 -4.02 7.34 -3 7 C-2.26676204 4.98491642 -2.26676204 4.98491642 -2 3 C-1.34 3 -0.68 3 0 3 C0 2.01 0 1.02 0 0 Z " fill="#32475C" transform="translate(329,299)"/>
<path d="M0 0 C3 0.125 3 0.125 4 1.125 C4.0928726 2.53725046 4.11746772 3.95408934 4.11352539 5.36938477 C4.11344986 6.27024307 4.11337433 7.17110138 4.11329651 8.09925842 C4.10813522 9.07841721 4.10297394 10.05757599 4.09765625 11.06640625 C4.0962413 12.06381332 4.09482635 13.0612204 4.09336853 14.08885193 C4.08775114 17.28843124 4.07519571 20.48794169 4.0625 23.6875 C4.05748724 25.85091045 4.05292395 28.01432199 4.04882812 30.17773438 C4.03777607 35.49351325 4.02102104 40.80925171 4 46.125 C3.67 46.125 3.34 46.125 3 46.125 C2.67 31.935 2.34 17.745 2 3.125 C0.68 2.795 -0.64 2.465 -2 2.125 C-2.33 16.645 -2.66 31.165 -3 46.125 C-3.33 46.125 -3.66 46.125 -4 46.125 C-4.02527062 39.73462769 -4.04283317 33.34426817 -4.05493164 26.95385742 C-4.05997308 24.77807127 -4.06680607 22.60228853 -4.07543945 20.42651367 C-4.08751338 17.30646933 -4.09323005 14.18646962 -4.09765625 11.06640625 C-4.10281754 10.08724747 -4.10797882 9.10808868 -4.11329651 8.09925842 C-4.11337204 7.19840012 -4.11344757 6.29754181 -4.11352539 5.36938477 C-4.115746 4.57218521 -4.11796661 3.77498566 -4.12025452 2.95362854 C-3.91345544 -0.19102421 -3.19696524 0.13320688 0 0 Z " fill="#9DCEE6" transform="translate(250,265.875)"/>
<path d="M0 0 C0.66 0.33 1.32 0.66 2 1 C-0.91116083 7.14435272 -2.76410775 10.01761675 -9 13 C-10.38970299 15.28678738 -11.13163967 17.44316126 -12 20 C-12.66 20 -13.32 20 -14 20 C-14.33 20.99 -14.66 21.98 -15 23 C-15.66 23 -16.32 23 -17 23 C-13.98518239 15.00788917 -9.36080181 6.82628065 -3 1 C-2.01 0.67 -1.02 0.34 0 0 Z " fill="#19314A" transform="translate(180,174)"/>
<path d="M0 0 C1.28357682 0.64178841 2.55597378 1.30674416 3.8125 2 C6.19645458 3.08980781 8.422113 3.57035217 11 4 C11 4.66 11 5.32 11 6 C9.97519531 6.19335938 8.95039063 6.38671875 7.89453125 6.5859375 C6.53380399 6.84869863 5.17312967 7.11173398 3.8125 7.375 C3.13896484 7.50132812 2.46542969 7.62765625 1.77148438 7.7578125 C-2.02904267 8.49937875 -5.42592902 9.53989995 -9 11 C-9.99 11 -10.98 11 -12 11 C-12 10.34 -12 9.68 -12 9 C-10.68 8.34 -9.36 7.68 -8 7 C-8 6.34 -8 5.68 -8 5 C-6.35 4.67 -4.7 4.34 -3 4 C-3 3.01 -3 2.02 -3 1 C-2.01 0.67 -1.02 0.34 0 0 Z " fill="#2E4357" transform="translate(230,150)"/>
<path d="M0 0 C0 0.66 0 1.32 0 2 C0.66 2 1.32 2 2 2 C2 2.66 2 3.32 2 4 C1.34 4.66 0.68 5.32 0 6 C-0.12375 6.66 -0.2475 7.32 -0.375 8 C-1 10 -1 10 -2.6875 11.4375 C-6.15266077 12.28037694 -8.03219508 10.7537029 -11 9 C-10.67 7.35 -10.34 5.7 -10 4 C-9.34 4 -8.68 4 -8 4 C-7.67 3.01 -7.34 2.02 -7 1 C-4 0 -4 0 0 0 Z " fill="#1B364E" transform="translate(203,157)"/>
<path d="M0 0 C0.66 0 1.32 0 2 0 C2.02505615 0.90766113 2.0501123 1.81532227 2.07592773 2.75048828 C2.17143059 6.13878234 2.27064084 9.52692669 2.37231445 12.91503906 C2.41545337 14.37756148 2.45714195 15.84012747 2.49731445 17.30273438 C2.5555307 19.4128936 2.61907288 21.52283775 2.68359375 23.6328125 C2.72025146 24.90012207 2.75690918 26.16743164 2.79467773 27.47314453 C2.98371036 30.72019016 3.3962073 33.80698948 4 37 C2.02 37 0.04 37 -2 37 C-1.01 36.505 -1.01 36.505 0 36 C0 24.12 0 12.24 0 0 Z " fill="#39A0D7" transform="translate(249,174)"/>
<path d="M0 0 C0.721875 0.268125 1.44375 0.53625 2.1875 0.8125 C2.1875 1.4725 2.1875 2.1325 2.1875 2.8125 C4.1675 3.4725 6.1475 4.1325 8.1875 4.8125 C8.1875 5.4725 8.1875 6.1325 8.1875 6.8125 C6.89823008 7.17529456 5.60596728 7.52746698 4.3125 7.875 C3.59320313 8.07222656 2.87390625 8.26945312 2.1328125 8.47265625 C0.1875 8.8125 0.1875 8.8125 -1.8125 7.8125 C-1.8125 6.4925 -1.8125 5.1725 -1.8125 3.8125 C-4.61122437 6.34038007 -6.27023019 8.01661134 -6.8125 11.8125 C-7.1425 10.8225 -7.4725 9.8325 -7.8125 8.8125 C-8.4725 8.8125 -9.1325 8.8125 -9.8125 8.8125 C-7.98776184 4.33359724 -5.22524493 -0.34834966 0 0 Z " fill="#364B5E" transform="translate(339.8125,342.1875)"/>
<path d="M0 0 C2.72647685 2.35468455 3.98756342 4.5408417 5 8 C4.5625 10.125 4.5625 10.125 4 12 C4.33 12.99 4.66 13.98 5 15 C3 16 3 16 0.4375 15.25 C-2 14 -2 14 -3 11 C-3 10.01 -3 9.02 -3 8 C-2.01 7.67 -1.02 7.34 0 7 C-0.2784375 5.824375 -0.2784375 5.824375 -0.5625 4.625 C-1 2 -1 2 0 0 Z " fill="#1C354F" transform="translate(190,299)"/>
<path d="M0 0 C0.33 0 0.66 0 1 0 C1 2.31 1 4.62 1 7 C-14.18 7 -29.36 7 -45 7 C-45.33 5.35 -45.66 3.7 -46 2 C-45.34 1.67 -44.68 1.34 -44 1 C-43.67 2.32 -43.34 3.64 -43 5 C-28.81 5.33 -14.62 5.66 0 6 C0 4.02 0 2.04 0 0 Z " fill="#8DC6E2" transform="translate(221,235)"/>
<path d="M0 0 C0.66 0.99 1.32 1.98 2 3 C2.99 3 3.98 3 5 3 C5.1875 5.875 5.1875 5.875 5 9 C4.01 9.66 3.02 10.32 2 11 C0.66431979 10.67619874 -0.66923011 10.34342449 -2 10 C-2.66 10.66 -3.32 11.32 -4 12 C-3.33989524 9.15449988 -2.48275034 6.47674001 -1.4375 3.75 C-1.16808594 3.04359375 -0.89867187 2.3371875 -0.62109375 1.609375 C-0.41613281 1.07828125 -0.21117187 0.5471875 0 0 Z " fill="#375065" transform="translate(162,197)"/>
<path d="M0 0 C0.99 0 1.98 0 3 0 C1.53967505 5.31027254 -0.98320986 9.46330032 -4 14 C-6.0625 11.6875 -6.0625 11.6875 -8 9 C-7.67 8.01 -7.34 7.02 -7 6 C-5.0625 5.25 -5.0625 5.25 -3 5 C-2.34 5.33 -1.68 5.66 -1 6 C-0.67 4.02 -0.34 2.04 0 0 Z " fill="#354E63" transform="translate(334,280)"/>
<path d="M0 0 C0.66 0.33 1.32 0.66 2 1 C1.2575 1.350625 0.515 1.70125 -0.25 2.0625 C-3.6668197 4.46980479 -5.59810696 7.10840619 -7 11 C-7.30478611 13.76726439 -7.19625933 16.20330462 -7 19 C-6.34 19.33 -5.68 19.66 -5 20 C-5 21.65 -5 23.3 -5 25 C-7.64005083 22.81043403 -8.88265302 21.61952301 -9.53125 18.1953125 C-9.42405283 7.66319082 -9.42405283 7.66319082 -5 3 C-2.375 1.0625 -2.375 1.0625 0 0 Z " fill="#8DC27A" transform="translate(244,224)"/>
<path d="M0 0 C0.99 0.33 1.98 0.66 3 1 C3.6875 3.0625 3.6875 3.0625 4 5 C2.64567325 3.68799596 1.31266518 2.35368596 0 1 C0 0.67 0 0.34 0 0 Z M1 5 C2.953125 5.7109375 2.953125 5.7109375 5 7 C5.609375 9.1640625 5.609375 9.1640625 5.75 11.625 C5.80671875 12.44226563 5.8634375 13.25953125 5.921875 14.1015625 C5.94765625 14.72804687 5.9734375 15.35453125 6 16 C4.35 15.67 2.7 15.34 1 15 C0.80587819 13.52168779 0.61987869 12.04230684 0.4375 10.5625 C0.33308594 9.73878906 0.22867187 8.91507813 0.12109375 8.06640625 C0.08113281 7.38449219 0.04117187 6.70257813 0 6 C0.33 5.67 0.66 5.34 1 5 Z " fill="#1E374C" transform="translate(289,151)"/>
<path d="M0 0 C0.845625 0.144375 1.69125 0.28875 2.5625 0.4375 C4.2640625 0.7159375 4.2640625 0.7159375 6 1 C7.175625 1.20625 8.35125 1.4125 9.5625 1.625 C12.79875891 1.97804643 14.89561055 1.83902417 18 1 C18.763125 0.814375 19.52625 0.62875 20.3125 0.4375 C20.869375 0.293125 21.42625 0.14875 22 0 C19.7004293 3.44935605 18.89922969 3.89804378 15 5 C9.33881609 5.44930031 5.92777387 5.12492977 1 2 C0.67 1.34 0.34 0.68 0 0 Z " fill="#8BC678" transform="translate(239,249)"/>
<path d="M0 0 C0.99 0.33 1.98 0.66 3 1 C4.546875 1.433125 4.546875 1.433125 6.125 1.875 C7.07375 2.24625 8.0225 2.6175 9 3 C9.33 3.99 9.66 4.98 10 6 C9.34 6 8.68 6 8 6 C8 5.34 8 4.68 8 4 C5.69 4 3.38 4 1 4 C0.67 6.97 0.34 9.94 0 13 C0.66 13 1.32 13 2 13 C1.67 13.99 1.34 14.98 1 16 C0.01 15.67 -0.98 15.34 -2 15 C-1.91621094 14.22914063 -1.83242188 13.45828125 -1.74609375 12.6640625 C-1.59333984 11.15972656 -1.59333984 11.15972656 -1.4375 9.625 C-1.33308594 8.62726563 -1.22867187 7.62953125 -1.12109375 6.6015625 C-0.78855292 4.015963 -0.78855292 4.015963 -2 2 C-1.34 1.34 -0.68 0.68 0 0 Z " fill="#4D5E70" transform="translate(316,306)"/>
<path d="M0 0 C0.66 0 1.32 0 2 0 C1.32902328 4.19360449 -0.8558394 7.40334352 -3 11 C-3.99 10.34 -4.98 9.68 -6 9 C-5.67 6.69 -5.34 4.38 -5 2 C-4.01 1.67 -3.02 1.34 -2 1 C-1.34 1.33 -0.68 1.66 0 2 C0 1.34 0 0.68 0 0 Z " fill="#41586B" transform="translate(179,190)"/>
<path d="M0 0 C0 0.33 0 0.66 0 1 C-2.66666667 1.66666667 -5.33333333 2.33333333 -8 3 C-9.0209375 3.2784375 -9.0209375 3.2784375 -10.0625 3.5625 C-12.7227141 4.16319351 -15.28384152 4.06173087 -18 4 C-18.33 4.66 -18.66 5.32 -19 6 C-20.98 6 -22.96 6 -25 6 C-24 4 -24 4 -21.19140625 2.9296875 C-13.96076346 0.82820897 -7.54027863 -0.6254609 0 0 Z " fill="#586876" transform="translate(241,143)"/>
<path d="M0 0 C0.66 0.33 1.32 0.66 2 1 C2.625 3.0625 2.625 3.0625 3 5 C1.375 6.5625 1.375 6.5625 -1 8 C-4.25 7.6875 -4.25 7.6875 -7 7 C-5.37660195 5.29115995 -3.70680947 3.62553283 -2 2 C-1.34 2 -0.68 2 0 2 C0 1.34 0 0.68 0 0 Z " fill="#18324C" transform="translate(171,271)"/>
<path d="M0 0 C0 0.66 0 1.32 0 2 C0.66 2.33 1.32 2.66 2 3 C1.01 4.98 0.02 6.96 -1 9 C-1.99 8.67 -2.98 8.34 -4 8 C-4.33 6.02 -4.66 4.04 -5 2 C-2 0 -2 0 0 0 Z " fill="#17334C" transform="translate(338,346)"/>
<path d="M0 0 C1.98 0.495 1.98 0.495 4 1 C3.67 1.99 3.34 2.98 3 4 C3.99 4 4.98 4 6 4 C6.66 5.98 7.32 7.96 8 10 C7.01 10 6.02 10 5 10 C5 8.35 5 6.7 5 5 C4.38125 5.185625 3.7625 5.37125 3.125 5.5625 C1 6 1 6 -1 5 C-0.67 3.35 -0.34 1.7 0 0 Z " fill="#193249" transform="translate(329,189)"/>
<path d="M0 0 C1.98 0.66 3.96 1.32 6 2 C6.33 3.65 6.66 5.3 7 7 C3 7 3 7 0 6 C0 4.02 0 2.04 0 0 Z " fill="#19364F" transform="translate(182,293)"/>
<path d="M0 0 C0.66 0 1.32 0 2 0 C2.66 2.31 3.32 4.62 4 7 C4.66 7 5.32 7 6 7 C5.67 8.98 5.34 10.96 5 13 C2.47368858 9.87218586 0.57626634 6.70422589 -1 3 C-0.67 2.01 -0.34 1.02 0 0 Z " fill="#4C5C6F" transform="translate(322,192)"/>
<path d="M0 0 C0.99 0.33 1.98 0.66 3 1 C1.625 2.5 1.625 2.5 0 4 C-0.66 4 -1.32 4 -2 4 C-2 4.66 -2 5.32 -2 6 C-3.53125 7.2890625 -3.53125 7.2890625 -5.5 8.625 C-6.1496875 9.07101563 -6.799375 9.51703125 -7.46875 9.9765625 C-7.9740625 10.31429687 -8.479375 10.65203125 -9 11 C-8.67 9.02 -8.34 7.04 -8 5 C-6.35 5 -4.7 5 -3 5 C-3 4.01 -3 3.02 -3 2 C-2.01 2 -1.02 2 0 2 C0 1.34 0 0.68 0 0 Z " fill="#4C5C70" transform="translate(198,170)"/>
<path d="M0 0 C-0.33 1.32 -0.66 2.64 -1 4 C-5.29 4.66 -9.58 5.32 -14 6 C-12.60399265 3.2079853 -10.99583616 2.99837067 -8.125 1.875 C-7.24070312 1.52179688 -6.35640625 1.16859375 -5.4453125 0.8046875 C-3 0 -3 0 0 0 Z " fill="#4B5A69" transform="translate(289,313)"/>
<path d="M0 0 C0.66 0.33 1.32 0.66 2 1 C1.67 1.99 1.34 2.98 1 4 C0.34 4 -0.32 4 -1 4 C-1.226875 4.639375 -1.45375 5.27875 -1.6875 5.9375 C-3 8 -3 8 -5.625 8.75 C-6.40875 8.8325 -7.1925 8.915 -8 9 C-6.95125002 6.37812506 -6.35068687 5.20628639 -3.875 3.75 C-3.25625 3.5025 -2.6375 3.255 -2 3 C-2 2.34 -2 1.68 -2 1 C-1.34 0.67 -0.68 0.34 0 0 Z " fill="#495B6B" transform="translate(194,159)"/>
<path d="M0 0 C-0.50603992 2.16874252 -0.99983813 3.99967627 -2 6 C-2.66 6 -3.32 6 -4 6 C-4 5.34 -4 4.68 -4 4 C-5.98 4.33 -7.96 4.66 -10 5 C-6.99385784 1.69324363 -4.54252119 0 0 0 Z " fill="#425568" transform="translate(207,153)"/>
<path d="M0 0 C1.65 0 3.3 0 5 0 C4.8125 1.875 4.8125 1.875 4 4 C1.10888212 5.52164099 -0.71823412 6 -4 6 C-4 5.34 -4 4.68 -4 4 C-2.68 3.34 -1.36 2.68 0 2 C0 1.34 0 0.68 0 0 Z " fill="#43576A" transform="translate(222,155)"/>
<path d="M0 0 C2.67471043 2.67471043 2.32943834 4.14805618 2.375 7.875 C2.40335937 8.92429688 2.43171875 9.97359375 2.4609375 11.0546875 C1.90279382 14.62113101 0.74573403 15.75349034 -2 18 C-2 16.35 -2 14.7 -2 13 C-1.01 12.67 -0.02 12.34 1 12 C0.67 8.04 0.34 4.08 0 0 Z " fill="#8ABF78" transform="translate(263,231)"/>
<path d="M0 0 C0.66 0 1.32 0 2 0 C2.22786458 2.01822917 2.45572917 4.03645833 2.68359375 6.0546875 C2.91292961 8.07404316 2.91292961 8.07404316 4 10 C3.67 10.66 3.34 11.32 3 12 C2.01 12 1.02 12 0 12 C0 8.04 0 4.08 0 0 Z " fill="#506270" transform="translate(153,232)"/>
<path d="M0 0 C0.33 0 0.66 0 1 0 C0.67 2.64 0.34 5.28 0 8 C-0.99 8.33 -1.98 8.66 -3 9 C-3.33 9.99 -3.66 10.98 -4 12 C-4.66 12 -5.32 12 -6 12 C-4.43358249 7.69235185 -2.31663844 3.93828536 0 0 Z " fill="#4E5F73" transform="translate(169,185)"/>
<path d="M0 0 C5.23022392 1.13321518 7.59414535 1.69560901 12 5 C5.565 5.495 5.565 5.495 -1 6 C-0.34 5.01 0.32 4.02 1 3 C0.67 2.01 0.34 1.02 0 0 Z " fill="#4A6477" transform="translate(334,329)"/>
<path d="M0 0 C1.07310858 3.27185553 0.89263102 5.42947592 0.0625 8.75 C-0.22947266 9.94882813 -0.22947266 9.94882813 -0.52734375 11.171875 C-0.68332031 11.77515625 -0.83929688 12.3784375 -1 13 C-1.33 12.01 -1.66 11.02 -2 10 C-2.66 10 -3.32 10 -4 10 C-3.67 7.69 -3.34 5.38 -3 3 C-2.01 3 -1.02 3 0 3 C0 2.01 0 1.02 0 0 Z " fill="#536674" transform="translate(169,213)"/>
<path d="M0 0 C1.41687119 4.25061356 0.19320039 6.71851625 -1 11 C-1.66 11 -2.32 11 -3 11 C-4.32342458 7.02972626 -3.36639254 4.88343142 -2 1 C-1.34 0.67 -0.68 0.34 0 0 Z " fill="#3E4F62" transform="translate(364,340)"/>
<path d="M0 0 C3.16115776 1.36983503 3.9927092 1.9890638 6 5 C3.6875 5.6875 3.6875 5.6875 1 6 C-0.8125 4.5625 -0.8125 4.5625 -2 3 C-1.34 3 -0.68 3 0 3 C0 2.01 0 1.02 0 0 Z " fill="#394E63" transform="translate(329,299)"/>
<path d="M0 0 C-2.97 2.475 -2.97 2.475 -6 5 C-6.66 4.67 -7.32 4.34 -8 4 C-8 3.01 -8 2.02 -8 1 C-8.99 0.67 -9.98 0.34 -11 0 C-3.375 -1.125 -3.375 -1.125 0 0 Z " fill="#5D7084" transform="translate(338,322)"/>
<path d="M0 0 C2.5 1.625 2.5 1.625 5 4 C5.3125 7.25 5.3125 7.25 5 10 C0.125 5.25 0.125 5.25 -1 3 C-0.67 2.01 -0.34 1.02 0 0 Z " fill="#485775" transform="translate(174,294)"/>
<path d="M0 0 C0.66 0 1.32 0 2 0 C2.33 1.32 2.66 2.64 3 4 C7.29 4.33 11.58 4.66 16 5 C16 5.33 16 5.66 16 6 C11.05 6 6.1 6 1 6 C0 1 0 1 0 0 Z " fill="#85C0DB" transform="translate(175,236)"/>
<path d="M0 0 C0 0.66 0 1.32 0 2 C-0.66 2 -1.32 2 -2 2 C-2 2.66 -2 3.32 -2 4 C-2.66 4 -3.32 4 -4 4 C-4.33 4.99 -4.66 5.98 -5 7 C-5.66 6.34 -6.32 5.68 -7 5 C-7 4.01 -7 3.02 -7 2 C-4.35261084 0.5393715 -3.10551666 0 0 0 Z " fill="#45576A" transform="translate(189,181)"/>
<path d="M0 0 C0.99 0 1.98 0 3 0 C3 2.64 3 5.28 3 8 C2.01 8 1.02 8 0 8 C0 5.36 0 2.72 0 0 Z " fill="#2D9BD5" transform="translate(248,166)"/>
<path d="M0 0 C1.65 0 3.3 0 5 0 C4.75 2.375 4.75 2.375 4 5 C1.9375 6.3125 1.9375 6.3125 0 7 C0 4.66666667 0 2.33333333 0 0 Z " fill="#173249" transform="translate(209,314)"/>
<path d="M0 0 C0.33 0.66 0.66 1.32 1 2 C-0.59025991 5.10100683 -2.2996944 7.76931277 -5 10 C-5.66 10 -6.32 10 -7 10 C-5.33248852 6.05860922 -2.77289351 3.2107188 0 0 Z " fill="#5B6978" transform="translate(177,175)"/>
<path d="M0 0 C0.99 0 1.98 0 3 0 C2.5020163 3.73487777 2.12508244 5.81237635 0 9 C-1.125 2.25 -1.125 2.25 0 0 Z " fill="#4B5A6A" transform="translate(339,267)"/>
<path d="M0 0 C0.33 0.66 0.66 1.32 1 2 C-0.125 3.9375 -0.125 3.9375 -2 6 C-5.1875 6.75 -5.1875 6.75 -8 7 C-5.42215154 4.35247996 -3.08351902 2.05567935 0 0 Z " fill="#4F6070" transform="translate(305,301)"/>
<path d="M0 0 C1.1725131 0.95117134 2.33787015 1.91117009 3.5 2.875 C4.47453125 3.67550781 4.47453125 3.67550781 5.46875 4.4921875 C5.9740625 4.98976563 6.479375 5.48734375 7 6 C7 6.66 7 7.32 7 8 C5.68 7.34 4.36 6.68 3 6 C3 5.34 3 4.68 3 4 C2.01 4 1.02 4 0 4 C0 2.68 0 1.36 0 0 Z " fill="#4A5A6C" transform="translate(188,295)"/>
<path d="M0 0 C3.465 1.485 3.465 1.485 7 3 C6.01 3.495 6.01 3.495 5 4 C4.34786708 6.02463255 4.34786708 6.02463255 4 8 C0 2.25 0 2.25 0 0 Z " fill="#586878" transform="translate(168,289)"/>
<path d="M0 0 C1.78409802 3.06246747 2.22880021 5.22079273 2.125 8.75 C2.10695312 9.54921875 2.08890625 10.3484375 2.0703125 11.171875 C2.04710937 11.77515625 2.02390625 12.3784375 2 13 C0.4375 11.5625 0.4375 11.5625 -1 9 C-0.96846324 5.94619073 -0.53266629 3.00346778 0 0 Z " fill="#5F707B" transform="translate(165,238)"/>
<path d="M0 0 C0.66 0.33 1.32 0.66 2 1 C1.66666667 2.33333333 1.33333333 3.66666667 1 5 C0.835 5.70125 0.67 6.4025 0.5 7.125 C0 9 0 9 -1 11 C-2 10 -2 10 -2.0625 6.4375 C-2.041875 5.303125 -2.02125 4.16875 -2 3 C-1.34 3 -0.68 3 0 3 C0 2.01 0 1.02 0 0 Z " fill="#1B344A" transform="translate(157,218)"/>
<path d="M0 0 C0.99 0.33 1.98 0.66 3 1 C3 2.32 3 3.64 3 5 C0.69 4.67 -1.62 4.34 -4 4 C-3.67 3.34 -3.34 2.68 -3 2 C-2.01 2 -1.02 2 0 2 C0 1.34 0 0.68 0 0 Z " fill="#17314A" transform="translate(224,326)"/>
<path d="M0 0 C3 0 3 0 6 1 C5.01 1.495 5.01 1.495 4 2 C3.67 2.99 3.34 3.98 3 5 C1.68 5 0.36 5 -1 5 C-0.67 3.35 -0.34 1.7 0 0 Z " fill="#3E556E" transform="translate(328,267)"/>
<path d="M0 0 C0.66 0 1.32 0 2 0 C2 0.66 2 1.32 2 2 C3.32 2.66 4.64 3.32 6 4 C5.01 4.66 4.02 5.32 3 6 C2.01 5.34 1.02 4.68 0 4 C0 2.68 0 1.36 0 0 Z " fill="#4E6172" transform="translate(306,160)"/>
<path d="M0 0 C0.99 0.66 1.98 1.32 3 2 C-3.625 5.125 -3.625 5.125 -7 4 C-6.67 3.34 -6.34 2.68 -6 2 C-4.02 2 -2.04 2 0 2 C0 1.34 0 0.68 0 0 Z " fill="#5C6D7B" transform="translate(287,325)"/>
<path d="M0 0 C0.66 0.33 1.32 0.66 2 1 C1.67 3.31 1.34 5.62 1 8 C1.66 8 2.32 8 3 8 C2.67 8.99 2.34 9.98 2 11 C1.01 10.67 0.02 10.34 -1 10 C-0.67 6.7 -0.34 3.4 0 0 Z " fill="#6E7D8B" transform="translate(315,311)"/>
<path d="M0 0 C0.33 0 0.66 0 1 0 C1 2.31 1 4.62 1 7 C-0.32 7.33 -1.64 7.66 -3 8 C-2.690625 7.236875 -2.38125 6.47375 -2.0625 5.6875 C-1.32106407 3.81210323 -0.63771783 1.91315348 0 0 Z " fill="#566577" transform="translate(326,272)"/>
<path d="M0 0 C3.8063457 0.67170806 7.35206816 1.72746564 11 3 C7.52176885 4.15941038 5.54104422 3.70820884 2 3 C2 2.34 2 1.68 2 1 C1.34 0.67 0.68 0.34 0 0 Z " fill="#687783" transform="translate(215,315)"/>
<path d="M0 0 C0.99 0 1.98 0 3 0 C1.25 5.75 1.25 5.75 -1 8 C-0.67 5.36 -0.34 2.72 0 0 Z " fill="#4E6172" transform="translate(334,280)"/>
<path d="M0 0 C1.32 0.66 2.64 1.32 4 2 C4 2.99 4 3.98 4 5 C3.34 5 2.68 5 2 5 C2 4.34 2 3.68 2 3 C1.34 3 0.68 3 0 3 C-0.33 3.66 -0.66 4.32 -1 5 C-1 1 -1 1 0 0 Z " fill="#1A354E" transform="translate(185,176)"/>
</svg>
